Format : MPEG-4
Format profile : Base Media / Version 2
Codec ID : mp42
File size : 400 MiB
Duration : 1h 36mn
Overall bit rate : 579 Kbps
Encoded date : UTC 2010-11-12 21:53:14
Tagged date : UTC 2010-11-12 21:53:42
Writing application : mp4creator 1.6.1d

Video
ID : 1
Format : AVC
Format/Info : Advanced Video Codec
Format profile : Baseline@L1.3
Format settings, CABAC : No
Format settings, ReFrames : 1 frame
Codec ID : avc1
Codec ID/Info : Advanced Video Coding
Duration : 1h 36mn
Bit rate mode : Variable
Bit rate : 512 Kbps
Width : 480 pixels
Height : 272 pixels
Display aspect ratio : 16:9
Original display aspect ratio : 16:9
Frame rate mode : Constant
Frame rate : 24.000 fps
Resolution : 24 bits
Colorimetry : 4:2:0
Scan type : Progressive
Bits/(Pixel*Frame) : 0.163
Stream size : 354 MiB (88%)
Encoded date : UTC 2010-11-12 21:53:14
Tagged date : UTC 2010-11-12 21:53:41

Audio
ID : 2
Format : AAC
Format/Info : Advanced Audio Codec
Format version : Version 4
Format profile : LC
Format settings, SBR : Yes
Format settings, PS : No
Codec ID : 40
Duration : 1h 36mn
Bit rate mode : Variable
Bit rate : 66.15 Kbps
Maximum bit rate : 128 Kbps
Channel(s) : 2 channels
Channel positions : L R
Sampling rate : 48.0 KHz
Resolution : 16 bits
Stream size : 45.2 MiB (11%)
Encoded date : UTC 2010-11-12 21:53:41
Tagged date : UTC 2010-11-12 21:53:42

Santa Paws returns for more canine capers in Disney‘s much-loved Buddies series. Santa has lost his magic crystal and his marbles he‘s working in a store as a Santa! It‘s up to Paws and his fellow puppies to find the crystal and save Christmas.
 
http://www.imdb.com/title/tt1544572/

screens
 
http://img258.imageshack.us/img258/1696/santapawsh264vicemp4sna.jpg 
http://img819.imageshack.us/img819/1696/santapawsh264vicemp4sna.jpg 
http://img293.imageshack.us/img293/1696/santapawsh264vicemp4sna.jpg 
http://img140.imageshack.us/img140/1696/santapawsh264vicemp4sna.jpg